<?xml version="1.0" encoding="iso-8859-1"?>
<!-- Generator: Adobe Illustrator 19.0.0, SVG Export Plug-In . SVG Version: 6.00 Build 0)  -->
<svg version="1.1" id="Capa_1" xmlns="http://www.w3.org/2000/svg" xmlns:xlink="http://www.w3.org/1999/xlink" x="0px" y="0px"
	 viewBox="0 0 512 512" style="enable-background:new 0 0 512 512;" xml:space="preserve">
<path style="fill:#F2F2F2;" d="M480,0H32C13.867,0,0,13.867,0,32v448c0,18.133,13.867,32,32,32h448c18.133,0,32-13.867,32-32V32
	C512,13.867,498.133,0,480,0z"/>
<rect x="42.667" y="45.867" style="fill:#FFFFFF;" width="426.667" height="114.133"/>
<g>
	<path style="fill:#FF7058;" d="M196.267,141.867L188.8,124.8h-32l-7.467,17.067H131.2l33.067-76.8h17.067l33.067,76.8H196.267z
		 M172.8,88.533l-9.6,22.4h19.2L172.8,88.533z"/>
	<path style="fill:#FF7058;" d="M249.6,80v61.867h-17.067V80H211.2V65.067H272V80H249.6z"/>
	<path style="fill:#FF7058;" d="M353.067,93.867l-20.267,41.6h-10.667l-20.267-41.6v48H284.8v-76.8h23.467l19.2,41.6l20.267-41.6
		H371.2v76.8h-17.067v-48H353.067z"/>
</g>
<rect x="42.667" y="199.467" style="fill:#334A5E;" width="214.4" height="65.067"/>
<rect x="61.867" y="217.6" style="fill:#F2F2F2;" width="177.067" height="64"/>
<path style="fill:#4CDBC4;" d="M220.8,379.733V241.067H78.933v138.667c0,9.6,7.467,17.067,17.067,17.067h107.733
	C213.333,395.733,220.8,388.267,220.8,379.733z"/>
<g>
	<rect x="298.667" y="291.2" style="fill:#ACB3BA;" width="46.933" height="49.067"/>
	<rect x="360.533" y="291.2" style="fill:#ACB3BA;" width="46.933" height="49.067"/>
	<rect x="422.4" y="291.2" style="fill:#ACB3BA;" width="46.933" height="49.067"/>
	<rect x="298.667" y="354.133" style="fill:#ACB3BA;" width="46.933" height="49.067"/>
	<rect x="360.533" y="354.133" style="fill:#ACB3BA;" width="46.933" height="49.067"/>
	<rect x="422.4" y="354.133" style="fill:#ACB3BA;" width="46.933" height="49.067"/>
	<rect x="298.667" y="417.067" style="fill:#ACB3BA;" width="46.933" height="49.067"/>
	<rect x="360.533" y="417.067" style="fill:#ACB3BA;" width="46.933" height="49.067"/>
	<rect x="422.4" y="417.067" style="fill:#ACB3BA;" width="46.933" height="49.067"/>
</g>
<rect x="298.667" y="199.467" style="fill:#FFD15C;" width="170.667" height="60.8"/>
<g>
</g>
<g>
</g>
<g>
</g>
<g>
</g>
<g>
</g>
<g>
</g>
<g>
</g>
<g>
</g>
<g>
</g>
<g>
</g>
<g>
</g>
<g>
</g>
<g>
</g>
<g>
</g>
<g>
</g>
</svg>
