<?xml version="1.0" encoding="iso-8859-1"?>
<!-- Generator: Adobe Illustrator 19.0.0, SVG Export Plug-In . SVG Version: 6.00 Build 0)  -->
<svg version="1.1" id="Capa_1" xmlns="http://www.w3.org/2000/svg" xmlns:xlink="http://www.w3.org/1999/xlink" x="0px" y="0px"
	 viewBox="0 0 480 480" style="enable-background:new 0 0 480 480;" xml:space="preserve">
<path style="fill:#F8CF26;" d="M304,176H64v74.768C89.145,326.109,136.5,392.077,199.84,440H304V176z"/>
<path style="fill:#F2F2F2;" d="M40,8h288v168H40V8z"/>
<path style="fill:#CCCCCC;" d="M200,40h32v40h-32V40z"/>
<path style="fill:#E6E6E6;" d="M232,40h32v40h-32V40z"/>
<path style="fill:#CCCCCC;" d="M264,40h32v40h-32V40z"/>
<g>
	<path style="fill:#F8CF26;" d="M328,16h40c8.837,0,16,7.163,16,16v24l0,0h-56l0,0V16L328,16z"/>
	<path style="fill:#F8CF26;" d="M408,144h32v48h-32V144z"/>
</g>
<path style="fill:#FBB03B;" d="M40,144h288v32H40V144z"/>
<path style="fill:#CCCCCC;" d="M72,40h32v40H72V40z"/>
<path style="fill:#E6E6E6;" d="M104,40h32v40h-32V40z"/>
<path style="fill:#CCCCCC;" d="M136,40h32v40h-32V40z"/>
<path style="fill:#333333;" d="M220.28,332.616c-15.794,15.188-40.766,15.188-56.56,0c-7.524-7.238-11.758-17.24-11.72-27.68
	l-3.144,5.6c-8.502,15.12-5.692,34.078,6.832,46.08c15.794,15.188,40.766,15.188,56.56,0c7.675-7.362,11.933-17.59,11.752-28.224
	C222.866,329.89,221.622,331.301,220.28,332.616L220.28,332.616z"/>
<path style="fill:#4D4D4D;" d="M220.28,332.616c1.342-1.315,2.586-2.726,3.72-4.224c-0.12-6.263-1.792-12.398-4.864-17.856L184,248
	l-32,56.936c-0.047,10.435,4.176,20.436,11.688,27.68C179.487,347.825,204.481,347.825,220.28,332.616z"/>
<g>
	<path style="fill:#FBB03B;" d="M64,250.768V440h135.84C136.5,392.077,89.145,326.109,64,250.768z"/>
	<path style="fill:#FBB03B;" d="M55.512,440H40v32h153.2H328v-32H55.512z"/>
</g>
<path style="fill:#F7931E;" d="M40,440v32h153.2c-72.256-11.528-113.864-22.704-137.688-32H40z"/>
<path d="M440,136h-8V96c0.001-3.032-1.712-5.805-4.424-7.16l-32-16l-7.152,14.32L416,100.944V136h-8c-4.418,0-8,3.582-8,8h-16
	c-4.418,0-8,3.582-8,8v72c0,4.418,3.582,8,8,8h32v192c0,13.255-10.745,24-24,24s-24-10.745-24-24l0,0V64h16c4.418,0,8-3.582,8-8V32
	c0-13.255-10.745-24-24-24h-32c0-4.418-3.582-8-8-8H40c-4.418,0-8,3.582-8,8v168c0,4.418,3.582,8,8,8h16v248H40
	c-4.418,0-8,3.582-8,8v32c0,4.418,3.582,8,8,8h288c4.418,0,8-3.582,8-8v-32c0-4.418-3.582-8-8-8h-16V184h16c4.418,0,8-3.582,8-8V64
	h16v360c0,22.091,17.909,40,40,40s40-17.909,40-40V200h8c4.418,0,8-3.582,8-8v-48C448,139.582,444.418,136,440,136L440,136z
	 M320,448v16H48v-16H320z M72,432V184h224v248H72z M320,168H48v-16h272V168z M320,56v80H48V16h272V56z M336,48V24h32
	c4.418,0,8,3.582,8,8v16H336z M416,216h-24v-56h8v32c0,4.418,3.582,8,8,8h8V216z M432,184h-16v-32h16V184z"/>
<path d="M184,231.664l-42.096,74.96c-10.186,18.299-6.806,41.159,8.24,55.728c18.923,18.139,48.781,18.139,67.704,0
	c15.053-14.568,18.436-37.433,8.248-55.736L184,231.664z M206.704,350.864c-12.691,12.176-32.725,12.176-45.416,0
	c-9.971-9.444-12.213-24.473-5.432-36.416L184,264.336l28.144,50.12c6.78,11.947,4.535,26.979-5.44,36.424L206.704,350.864z"/>
<path d="M176,32H64v56h112V32z M96,72H80V48h16V72z M128,72h-16V48h16V72z M160,72h-16V48h16V72z"/>
<path d="M304,32H192v56h112V32z M224,72h-16V48h16V72z M256,72h-16V48h16V72z M288,72h-16V48h16V72z"/>
<path d="M80,104h16v16H80V104z"/>
<path d="M112,104h16v16h-16V104z"/>
<path d="M144,104h16v16h-16V104z"/>
<path d="M208,104h16v16h-16V104z"/>
<path d="M240,104h16v16h-16V104z"/>
<path d="M272,104h16v16h-16V104z"/>
<g>
</g>
<g>
</g>
<g>
</g>
<g>
</g>
<g>
</g>
<g>
</g>
<g>
</g>
<g>
</g>
<g>
</g>
<g>
</g>
<g>
</g>
<g>
</g>
<g>
</g>
<g>
</g>
<g>
</g>
</svg>
