<?xml version="1.0" encoding="iso-8859-1"?>
<!-- Generator: Adobe Illustrator 19.0.0, SVG Export Plug-In . SVG Version: 6.00 Build 0)  -->
<svg version="1.1" id="Capa_1" xmlns="http://www.w3.org/2000/svg" xmlns:xlink="http://www.w3.org/1999/xlink" x="0px" y="0px"
	 viewBox="0 0 512 512" style="enable-background:new 0 0 512 512;" xml:space="preserve">
<rect x="60.746" y="143.186" style="fill:#FDBD40;" width="242.983" height="104.136"/>
<path style="fill:#D3843D;" d="M8.678,438.237h329.763l0,0l0,0c0,38.339-31.084,69.424-69.424,69.424H78.102
	C39.762,507.661,8.678,476.577,8.678,438.237L8.678,438.237L8.678,438.237z"/>
<path style="fill:#8EC13F;" d="M34.712,386.169h277.695c14.379,0,26.034,11.654,26.034,26.034l0,0
	c0,14.379-11.654,26.034-26.034,26.034H34.712c-14.379,0-26.034-11.654-26.034-26.034l0,0
	C8.678,397.824,20.332,386.169,34.712,386.169z"/>
<path style="fill:#D3843D;" d="M338.441,299.39H8.678l0,0l0,0c0-38.339,31.084-69.424,69.424-69.424h190.915
	C307.356,229.966,338.441,261.051,338.441,299.39L338.441,299.39L338.441,299.39z"/>
<path style="fill:#FDBD40;" d="M295.051,386.169H52.068c-23.96,0-43.39-19.43-43.39-43.39l0,0c0-23.96,19.43-43.39,43.39-43.39
	h242.983c23.96,0,43.39,19.43,43.39,43.39l0,0C338.441,366.74,319.011,386.169,295.051,386.169z"/>
<path style="fill:#E1462B;" d="M283.44,360.136c-11.507,0.217-22.771-3.289-32.108-10.014c-13.668-9.789-32.048-9.789-45.716,0
	c-9.346,6.734-20.628,10.249-32.143,10.014c-11.507,0.234-22.78-3.289-32.108-10.023c-6.561-4.938-14.596-7.524-22.806-7.333
	c-8.218-0.2-16.271,2.386-22.84,7.333c-9.337,6.734-20.602,10.249-32.108,10.023c-11.507,0.226-22.78-3.289-32.108-10.023
	c-6.569-4.946-14.605-7.524-22.823-7.333c-4.79,0-8.678-3.888-8.678-8.678s3.888-8.678,8.678-8.678
	c11.507-0.226,22.78,3.289,32.108,10.023c6.569,4.946,14.605,7.524,22.823,7.333c8.227,0.2,16.271-2.386,22.84-7.342
	c9.337-6.725,20.601-10.24,32.108-10.014c11.507-0.226,22.78,3.289,32.108,10.023c13.65,9.78,32.022,9.78,45.672,0
	c19.326-13.347,44.891-13.347,64.217,0c13.676,9.789,32.065,9.789,45.742,0c9.346-6.725,20.628-10.249,32.143-10.023
	c4.79,0,8.678,3.888,8.678,8.678s-3.888,8.678-8.678,8.678c-8.235-0.2-16.289,2.386-22.866,7.342
	C306.228,356.847,294.955,360.361,283.44,360.136z"/>
<g>
	<rect x="86.78" y="256" style="fill:#FFD782;" width="17.356" height="17.356"/>
	<rect x="138.847" y="256" style="fill:#FFD782;" width="17.356" height="17.356"/>
	<rect x="190.915" y="256" style="fill:#FFD782;" width="17.356" height="17.356"/>
	<rect x="242.983" y="256" style="fill:#FFD782;" width="17.356" height="17.356"/>
</g>
<rect x="269.017" y="108.475" style="fill:#E1462B;" width="242.983" height="52.068"/>
<rect x="373.153" y="4.339" style="fill:#AABECE;" width="34.712" height="104.136"/>
<polygon style="fill:#FCF05A;" points="477.288,507.661 303.729,507.661 269.017,160.542 512,160.542 "/>
<circle style="fill:#E1462B;" cx="390.508" cy="290.712" r="60.746"/>
<rect x="60.746" y="39.051" style="fill:#FCF05A;" width="34.712" height="104.136"/>
<rect x="95.458" y="21.695" style="fill:#F49E21;" width="34.712" height="121.492"/>
<rect x="130.169" y="39.051" style="fill:#FCF05A;" width="34.712" height="104.136"/>
<rect x="164.881" y="39.051" style="fill:#F49E21;" width="34.712" height="104.136"/>
<rect x="199.593" y="39.051" style="fill:#FCF05A;" width="34.712" height="104.136"/>
<rect x="234.305" y="39.051" style="fill:#F49E21;" width="34.712" height="104.136"/>
<g>
</g>
<g>
</g>
<g>
</g>
<g>
</g>
<g>
</g>
<g>
</g>
<g>
</g>
<g>
</g>
<g>
</g>
<g>
</g>
<g>
</g>
<g>
</g>
<g>
</g>
<g>
</g>
<g>
</g>
</svg>
